HIERARCHY
ROOT Hips
{
	OFFSET 0.000000 0.000000 0.000000
	CHANNELS 6 Xposition Yposition Zposition Zrotation Yrotation Xrotation 
	JOINT LHipJoint
	{
		OFFSET 0.000000 0.000000 0.000000
		CHANNELS 3 Zrotation Yrotation Xrotation
		JOINT LeftUpLeg
		{
			OFFSET 1.363060 -1.794630 0.839290
			CHANNELS 3 Zrotation Yrotation Xrotation
			JOINT LeftLeg
			{
				OFFSET 2.448110 -6.726130 0.000000
				CHANNELS 3 Zrotation Yrotation Xrotation
				JOINT LeftFoot
				{
					OFFSET 2.562200 -7.039590 0.000000
					CHANNELS 3 Zrotation Yrotation Xrotation
					JOINT LeftToeBase
					{
						OFFSET 0.157640 -0.433110 2.322550
						CHANNELS 3 Zrotation Yrotation Xrotation
						End Site
						{
							OFFSET 0.000000 0.000000 0.000000
						}
					}
				}
			}
		}
	}
	JOINT RHipJoint
	{
		OFFSET 0.000000 0.000000 0.000000
		CHANNELS 3 Zrotation Yrotation Xrotation
		JOINT RightUpLeg
		{
			OFFSET -1.305520 -1.794630 0.839290
			CHANNELS 3 Zrotation Yrotation Xrotation
			JOINT RightLeg
			{
				OFFSET -2.542530 -6.985550 0.000000
				CHANNELS 3 Zrotation Yrotation Xrotation
				JOINT RightFoot
				{
					OFFSET -2.568260 -7.056230 0.000000
					CHANNELS 3 Zrotation Yrotation Xrotation
					JOINT RightToeBase
					{
						OFFSET -0.164730 -0.452590 2.363150
						CHANNELS 3 Zrotation Yrotation Xrotation
						End Site
						{
							OFFSET 0.000000 0.000000 0.000000
						}
					}
				}
			}
		}
	}
	JOINT LowerBack
	{
		OFFSET 0.000000 0.000000 0.000000
		CHANNELS 3 Zrotation Yrotation Xrotation
		JOINT Spine
		{
			OFFSET 0.028270 2.035590 -0.193380
			CHANNELS 3 Zrotation Yrotation Xrotation
			JOINT Spine1
			{
				OFFSET 0.056720 2.048850 -0.042750
				CHANNELS 3 Zrotation Yrotation Xrotation
				JOINT Neck
				{
					OFFSET 0.000000 0.000000 0.000000
					CHANNELS 3 Zrotation Yrotation Xrotation
					JOINT Neck1
					{
						OFFSET -0.054170 1.746240 0.172020
						CHANNELS 3 Zrotation Yrotation Xrotation
						JOINT Head
						{
							OFFSET 0.104070 1.761360 -0.123970
							CHANNELS 3 Zrotation Yrotation Xrotation
							End Site
							{
								OFFSET 0.000000 0.000000 0.000000
							}
						}
					}
				}
				JOINT LeftShoulder
				{
					OFFSET 0.000000 0.000000 0.000000
					CHANNELS 3 Zrotation Yrotation Xrotation
					JOINT LeftArm
					{
						OFFSET 3.362410 1.200890 -0.311210
						CHANNELS 3 Zrotation Yrotation Xrotation
						JOINT LeftForeArm
						{
							OFFSET 4.983000 -0.000000 -0.000000
							CHANNELS 3 Zrotation Yrotation Xrotation
							JOINT LeftHand
							{
								OFFSET 3.483560 -0.000000 -0.000000
								CHANNELS 3 Zrotation Yrotation Xrotation
								JOINT LeftFingerBase
								{
									OFFSET 0.000000 0.000000 0.000000
									CHANNELS 3 Zrotation Yrotation Xrotation
									JOINT LeftHandIndex1
									{
										OFFSET 0.715260 -0.000000 -0.000000
										CHANNELS 3 Zrotation Yrotation Xrotation
										End Site
										{
											OFFSET 0.000000 0.000000 0.000000
										}
									}
								}
								JOINT LThumb
								{
									OFFSET 0.000000 0.000000 0.000000
									CHANNELS 3 Zrotation Yrotation Xrotation
									End Site
									{
										OFFSET 0.000000 0.000000 0.000000
									}
								}
							}
						}
					}
				}
				JOINT RightShoulder
				{
					OFFSET 0.000000 0.000000 0.000000
					CHANNELS 3 Zrotation Yrotation Xrotation
					JOINT RightArm
					{
						OFFSET -3.136600 1.374050 -0.404650
						CHANNELS 3 Zrotation Yrotation Xrotation
						JOINT RightForeArm
						{
							OFFSET -5.241900 -0.000000 -0.000000
							CHANNELS 3 Zrotation Yrotation Xrotation
							JOINT RightHand
							{
								OFFSET -3.444170 -0.000000 -0.000000
								CHANNELS 3 Zrotation Yrotation Xrotation
								JOINT RightFingerBase
								{
									OFFSET 0.000000 0.000000 0.000000
									CHANNELS 3 Zrotation Yrotation Xrotation
									JOINT RightHandIndex1
									{
										OFFSET -0.622530 -0.000000 -0.000000
										CHANNELS 3 Zrotation Yrotation Xrotation
										End Site
										{
											OFFSET 0.000000 0.000000 0.000000
										}
									}
								}
								JOINT RThumb
								{
									OFFSET 0.000000 0.000000 0.000000
									CHANNELS 3 Zrotation Yrotation Xrotation
									End Site
									{
										OFFSET 0.000000 0.000000 0.000000
									}
								}
							}
						}
					}
				}
			}
		}
	}
}
MOTION
Frames: 5
Frame Time: 0.008333
0.600711 17.970685 -8.446651 -0.917307 -3.622104 10.738032 -1.358564 0.686612 0.995934 -13.034816 -4.839462 -14.219415 0.091199 6.790230 20.405577 0.473520 -2.491791 -6.355241 0.290900 -3.468500 -9.586000 3.438866 0.696694 0.460499 18.108287 5.514193 -15.504313 -2.081213 -8.741035 24.408945 0.033151 -3.912660 -11.047310 -0.019000 -0.890000 2.446200 -4.144888 0.271233 -6.623610 6.350954 0.875991 1.773689 5.051974 0.485376 1.454857 -0.023560 -0.094830 -14.562707 -3.411101 2.594510 38.603947 -2.392400 1.022600 18.820100 0.321643 5.364788 -1.125402 -91.060916 1.764368 23.933222 16.527460 -27.731230 -3.075357 0.829975 1.584000 -5.535217 7.149108 37.910433 3.670200 -7.125000 0.000000 0.000000 -34.185500 63.394300 -16.200500 -0.413418 -4.100630 -1.226635 84.086786 0.463813 20.273268 -14.203506 24.439500 -2.578835 -0.150434 0.095657 -8.005092 -18.344505 6.318156 -2.035100 7.125000 0.000000 0.000000 6.292900 -23.462400 3.286300 
0.616241 17.968905 -8.445267 -0.980569 -3.659507 10.842069 -1.354334 0.674804 0.974020 -13.013560 -4.896358 -14.356935 0.106605 6.842542 20.537267 0.466004 -2.390917 -6.421926 0.364200 -3.876400 -10.729300 3.437390 0.703586 0.448643 18.104922 5.495425 -15.606998 -2.076292 -8.721060 24.361019 0.017801 -3.784970 -11.056136 -0.026100 -1.043200 2.867700 -4.098009 0.295014 -6.603902 6.335058 0.919014 1.579406 5.023163 0.503024 1.424900 0.049208 -0.075525 -14.539262 -3.383162 2.593215 38.650440 -2.390200 1.038500 18.833200 0.320930 5.361877 -1.112000 -91.097791 1.896998 23.837798 16.413234 -27.561360 -3.031309 0.828488 1.576873 -5.319054 6.922883 37.676053 3.519900 -7.125000 0.000000 0.000000 -34.125000 63.146200 -15.970900 -0.409854 -4.095310 -1.213164 84.143812 0.345533 20.198443 -14.254474 24.517025 -2.595062 -0.144918 0.101591 -7.993244 -18.372733 6.592357 -2.127200 7.125000 0.000000 0.000000 6.261400 -23.180100 3.310400 
0.629891 17.968905 -8.445365 -0.969076 -3.693417 10.946778 -1.360028 0.659785 0.947904 -13.043486 -5.006289 -14.418757 0.110274 6.863502 20.581871 0.470851 -2.412768 -6.460679 0.255900 -3.254500 -8.988200 3.426510 0.708899 0.427142 18.035100 5.497847 -15.723292 -2.076709 -8.716397 24.355045 0.012426 -3.715117 -10.997767 -0.028600 -1.092400 3.003100 -4.061262 0.318457 -6.438785 6.208009 0.956907 1.271701 4.996589 0.519198 1.296060 0.390896 0.076530 -14.512626 -3.528484 2.754029 38.681717 -2.478600 1.130100 18.850000 0.322327 5.347406 -1.091145 -91.083623 2.088500 23.709104 16.304490 -27.399348 -2.990411 0.832791 1.566351 -5.059036 6.822581 37.397991 3.439800 -7.125000 0.000000 0.000000 -33.899500 62.898200 -15.655800 -0.401209 -4.108281 -1.196585 84.236494 0.218302 20.133588 -14.263113 24.532295 -2.592945 -0.139398 0.115709 -7.974470 -18.497627 7.062777 -2.294100 7.125000 0.000000 0.000000 6.155300 -22.697100 3.322200 
0.641266 17.973158 -8.441903 -0.967673 -3.727177 10.990692 -1.359505 0.658178 0.937607 -13.066019 -5.142925 -14.372570 0.111681 6.872614 20.604602 0.479173 -2.442364 -6.555667 0.149900 -2.494700 -6.874900 3.426968 0.712119 0.414943 17.982848 5.583689 -15.724233 -2.077675 -8.719771 24.365346 0.023392 -3.801371 -10.981788 -0.029000 -1.100200 3.024700 -4.116051 0.277672 -6.368583 6.229207 0.918017 1.119352 5.019745 0.496431 1.240126 0.268153 0.041832 -14.506700 -3.521557 2.745746 38.716672 -2.456500 1.109200 18.858100 0.324284 5.350741 -1.079366 -91.137308 2.258334 23.599951 16.221583 -27.279841 -2.964367 0.844662 1.548472 -4.963061 7.089345 37.012047 3.561700 -7.125000 0.000000 0.000000 -33.212400 62.665300 -15.119400 -0.400917 -4.103553 -1.186893 84.221583 0.177078 20.331619 -14.269258 24.539602 -2.593138 -0.140829 0.121239 -8.030473 -18.628933 7.208244 -2.357800 7.125000 0.000000 0.000000 6.057200 -22.545400 3.289800 
0.653433 17.974939 -8.434584 -0.855947 -3.735248 10.974230 -1.365454 0.661360 0.947001 -13.213928 -5.199407 -14.291043 0.110205 6.866536 20.598904 0.483601 -2.466334 -6.617048 0.161100 -2.585800 -7.127600 3.426684 0.709179 0.424131 17.819470 5.581327 -15.706598 -2.080040 -8.733662 24.399879 0.025562 -3.841887 -11.033486 -0.029900 -1.116700 3.069800 -4.284681 0.198881 -6.526455 6.227996 0.819056 1.257142 5.120189 0.448555 1.348682 0.136970 0.023911 -14.528974 -3.538101 2.757320 38.615238 -2.439100 1.086300 18.812700 0.326990 5.346461 -1.086089 -91.266004 2.245491 23.419587 16.134892 -27.144330 -2.921263 0.856777 1.545098 -4.755248 7.253370 37.107615 3.662900 -7.125000 0.000000 0.000000 -33.165900 62.787400 -15.190700 -0.398953 -4.102907 -1.198487 84.152025 0.270701 20.666712 -14.293406 24.572235 -2.602326 -0.147889 0.119698 -8.083044 -18.800915 7.090181 -2.341000 7.125000 0.000000 0.000000 5.938300 -22.661000 3.208700 
